<?xml version="1.0" encoding="UTF-8" standalone="no"?>
<svg
   width="24"
   height="24"
   version="1.1"
   id="svg3352"
   sodipodi:docname="big-face-tracker.svg"
   xml:space="preserve"
   inkscape:version="1.2.2 (b0a8486541, 2022-12-01)"
   xmlns:inkscape="http://www.inkscape.org/namespaces/inkscape"
   xmlns:sodipodi="http://sodipodi.sourceforge.net/DTD/sodipodi-0.dtd"
   xmlns:xlink="http://www.w3.org/1999/xlink"
   xmlns="http://www.w3.org/2000/svg"
   xmlns:svg="http://www.w3.org/2000/svg"><sodipodi:namedview
     id="namedview3354"
     pagecolor="#ffffff"
     bordercolor="#000000"
     borderopacity="0.25"
     inkscape:showpageshadow="2"
     inkscape:pageopacity="0.0"
     inkscape:pagecheckerboard="0"
     inkscape:deskcolor="#d1d1d1"
     showgrid="false"
     inkscape:zoom="45.254834"
     inkscape:cx="11.954524"
     inkscape:cy="11.821942"
     inkscape:window-width="1920"
     inkscape:window-height="998"
     inkscape:window-x="4240"
     inkscape:window-y="0"
     inkscape:window-maximized="1"
     inkscape:current-layer="svg3352" /><defs
     id="defs3332"><linearGradient
       id="a"
       x1="13.229"
       x2="2.1170001"
       y1="297"
       y2="280.07001"
       gradientTransform="matrix(0.99324236,0,0,0.78268164,-16.450687,-215.55468)"
       gradientUnits="userSpaceOnUse"><stop
         stop-color="#66bcff"
         offset="0"
         id="stop3327" /><stop
         stop-color="#b29aff"
         offset="1"
         id="stop3329" /></linearGradient><linearGradient
       id="a-5"
       x1="39.153999"
       x2="59"
       y1="26"
       y2="26"
       gradientUnits="userSpaceOnUse"><stop
         offset="0"
         id="stop29503" /><stop
         stop-opacity="0"
         offset="1"
         id="stop29505" /></linearGradient><linearGradient
       id="paint0_linear_24_198"
       x1="23"
       y1="0.99999899"
       x2="1"
       y2="12"
       gradientUnits="userSpaceOnUse"
       gradientTransform="translate(80.45283,10.792453)"><stop
         stop-color="#E3C880"
         id="stop29699" /><stop
         offset="1"
         stop-color="#6F5C38"
         id="stop29701" /></linearGradient><linearGradient
       id="paint1_linear_24_198"
       x1="23"
       y1="5.4000001"
       x2="1.42949"
       y2="23.511499"
       gradientUnits="userSpaceOnUse"
       gradientTransform="translate(80.45283,10.792453)"><stop
         stop-color="#FFE795"
         id="stop29704" /><stop
         offset="1"
         stop-color="#7A653E"
         id="stop29706" /></linearGradient><linearGradient
       id="paint2_linear_24_198"
       x1="11.0823"
       y1="10.0859"
       x2="11.0823"
       y2="15.903"
       gradientUnits="userSpaceOnUse"><stop
         stop-color="#4285DB"
         id="stop29709" /><stop
         offset="1"
         stop-color="#42B9DB"
         id="stop29711" /></linearGradient><linearGradient
       id="paint3_linear_24_198"
       x1="8.9511003"
       y1="15.5956"
       x2="14.0675"
       y2="15.5956"
       gradientUnits="userSpaceOnUse"><stop
         stop-color="#FAFBFB"
         id="stop29714" /><stop
         offset="1"
         stop-color="#FAFBFB"
         stop-opacity="0"
         id="stop29716" /></linearGradient><linearGradient
       id="paint4_linear_24_198"
       x1="11.971"
       y1="16.0534"
       x2="11.279"
       y2="16.0534"
       gradientUnits="userSpaceOnUse"><stop
         id="stop29719" /><stop
         offset="1"
         stop-opacity="0"
         id="stop29721" /></linearGradient><linearGradient
       id="paint5_linear_24_198"
       x1="18.5"
       y1="9"
       x2="5.35918"
       y2="21.101801"
       gradientUnits="userSpaceOnUse"><stop
         stop-color="#6F5C38"
         id="stop29724" /><stop
         offset="1"
         stop-color="#6F5C38"
         id="stop29726" /></linearGradient><linearGradient
       id="paint6_linear_24_198"
       x1="11.5823"
       y1="9.5859098"
       x2="11.5823"
       y2="15.403"
       gradientUnits="userSpaceOnUse"
       gradientTransform="translate(80.45283,10.792453)"><stop
         stop-color="#4285DB"
         id="stop29729" /><stop
         offset="1"
         stop-color="#42B9DB"
         id="stop29731" /></linearGradient><linearGradient
       id="paint7_linear_24_198"
       x1="9.4511003"
       y1="15.0956"
       x2="14.5675"
       y2="15.0956"
       gradientUnits="userSpaceOnUse"
       gradientTransform="translate(74.369043,10.899186)"><stop
         stop-color="#FAFBFB"
         id="stop29734" /><stop
         offset="1"
         stop-color="#FAFBFB"
         stop-opacity="0"
         id="stop29736" /></linearGradient><linearGradient
       id="paint8_linear_24_198"
       x1="12.471"
       y1="15.5534"
       x2="11.779"
       y2="15.5534"
       gradientUnits="userSpaceOnUse"
       gradientTransform="translate(71.807449,11.005919)"><stop
         id="stop29739" /><stop
         offset="1"
         stop-opacity="0"
         id="stop29741" /></linearGradient><linearGradient
       id="paint9_linear_24_198"
       x1="19"
       y1="8.5"
       x2="5.85918"
       y2="20.601801"
       gradientUnits="userSpaceOnUse"
       gradientTransform="translate(80.45283,10.792453)"><stop
         stop-color="#777777"
         id="stop29744" /><stop
         offset="1"
         stop-color="#333333"
         id="stop29746" /></linearGradient><style
       type="text/css"
       id="current-color-scheme">
      .ColorScheme-Text {
        color:#31363b;
      }
      .ColorScheme-Background {
        color:#eff0f1;
      }
      .ColorScheme-Highlight {
        color:#3daee9;
      }
      .ColorScheme-ViewText {
        color:#31363b;
      }
      .ColorScheme-ViewBackground {
        color:#fcfcfc;
      }
      .ColorScheme-ViewHover {
        color:#93cee9;
      }
      .ColorScheme-ViewFocus{
        color:#3daee9;
      }
      .ColorScheme-ButtonText {
        color:#31363b;
      }
      .ColorScheme-ButtonBackground {
        color:#eff0f1;
      }
      .ColorScheme-ButtonHover {
        color:#93cee9;
      }
      .ColorScheme-ButtonFocus{
        color:#3daee9;
      }
      </style><style
       type="text/css"
       id="current-color-scheme-9">
      .ColorScheme-Text {
        color:#31363b;
      }
      .ColorScheme-Background {
        color:#eff0f1;
      }
      .ColorScheme-Highlight {
        color:#3daee9;
      }
      .ColorScheme-ViewText {
        color:#31363b;
      }
      .ColorScheme-ViewBackground {
        color:#fcfcfc;
      }
      .ColorScheme-ViewHover {
        color:#93cee9;
      }
      .ColorScheme-ViewFocus{
        color:#3daee9;
      }
      .ColorScheme-ButtonText {
        color:#31363b;
      }
      .ColorScheme-ButtonBackground {
        color:#eff0f1;
      }
      .ColorScheme-ButtonHover {
        color:#93cee9;
      }
      .ColorScheme-ButtonFocus{
        color:#3daee9;
      }
      </style><style
       type="text/css"
       id="current-color-scheme-2">
      .ColorScheme-Text {
        color:#31363b;
      }
      .ColorScheme-Background {
        color:#eff0f1;
      }
      .ColorScheme-Highlight {
        color:#3daee9;
      }
      .ColorScheme-ViewText {
        color:#31363b;
      }
      .ColorScheme-ViewBackground {
        color:#fcfcfc;
      }
      .ColorScheme-ViewHover {
        color:#93cee9;
      }
      .ColorScheme-ViewFocus{
        color:#3daee9;
      }
      .ColorScheme-ButtonText {
        color:#31363b;
      }
      .ColorScheme-ButtonBackground {
        color:#eff0f1;
      }
      .ColorScheme-ButtonHover {
        color:#93cee9;
      }
      .ColorScheme-ButtonFocus{
        color:#3daee9;
      }
      </style><style
       type="text/css"
       id="current-color-scheme-3">
      .ColorScheme-Text {
        color:#31363b;
      }
      .ColorScheme-Background {
        color:#eff0f1;
      }
      .ColorScheme-Highlight {
        color:#3daee9;
      }
      .ColorScheme-ViewText {
        color:#31363b;
      }
      .ColorScheme-ViewBackground {
        color:#fcfcfc;
      }
      .ColorScheme-ViewHover {
        color:#93cee9;
      }
      .ColorScheme-ViewFocus{
        color:#3daee9;
      }
      .ColorScheme-ButtonText {
        color:#31363b;
      }
      .ColorScheme-ButtonBackground {
        color:#eff0f1;
      }
      .ColorScheme-ButtonHover {
        color:#93cee9;
      }
      .ColorScheme-ButtonFocus{
        color:#3daee9;
      }
      </style><linearGradient
       id="linearGradient1105"
       inkscape:collect="always"><stop
         id="stop1101"
         offset="0"
         style="stop-color:#019ac9;stop-opacity:1" /><stop
         id="stop1103"
         offset="1"
         style="stop-color:#91e5fd;stop-opacity:1" /></linearGradient><clipPath
       clipPathUnits="userSpaceOnUse"
       id="clipPath1774"><path
         id="path1776"
         d="M 576.85567,1.9102362e-4 A 576.85532,580.7395 0 0 0 2.5984252e-4,580.7404 576.85532,580.7395 0 0 0 576.85567,1161.4786 576.85532,580.7395 0 0 0 919.00807,1047.4709 l 149.03903,132.1347 a 79.092908,79.62547 0 1 0 104.5372,-119.5098 L 1032.4261,935.8381 A 576.85532,580.7395 0 0 0 1153.7111,580.7404 576.85532,580.7395 0 0 0 576.85567,1.9102362e-4 Z m 0,71.91010097638 A 505.4261,508.82934 0 0 1 1082.2814,580.7384 505.4261,508.82934 0 0 1 576.85567,1089.5686 505.4261,508.82934 0 0 1 71.429861,580.7384 505.4261,508.82934 0 0 1 576.85567,71.910292 Z"
         style="opacity:1;fill-opacity:1;stroke:none;stroke-width:25.654;stroke-linecap:round;stroke-linejoin:round;stroke-miterlimit:4;stroke-dasharray:none;stroke-opacity:1;paint-order:stroke markers fill"
         inkscape:connector-curvature="0" /></clipPath><linearGradient
       inkscape:collect="always"
       xlink:href="#linearGradient1105"
       id="linearGradient4300"
       gradientUnits="userSpaceOnUse"
       gradientTransform="matrix(2.6770173,0,0,2.6770171,-93.052904,-5.1936417)"
       x1="37.623547"
       y1="20.78064"
       x2="74.762482"
       y2="77.428459" /><linearGradient
       id="paint0_linear_3_29"
       x1="12"
       y1="0"
       x2="12"
       y2="12"
       gradientUnits="userSpaceOnUse"
       gradientTransform="matrix(0.91666681,0,0,0.91666681,0.99999433,0.99999836)"><stop
         stop-color="white"
         id="stop36440" /><stop
         offset="1"
         stop-color="#D9D9D9"
         id="stop36442" /></linearGradient><clipPath
       id="clip0_3_29"><rect
         width="20"
         height="11.6875"
         fill="#ffffff"
         transform="translate(2,6.835)"
         id="rect36445"
         x="0"
         y="0" /></clipPath><linearGradient
       id="paint0_linear_3_29-3"
       x1="12"
       y1="0"
       x2="12"
       y2="12"
       gradientUnits="userSpaceOnUse"
       gradientTransform="matrix(0.91666682,0,0,0.91666682,1.000013,1.0000278)"><stop
         stop-color="white"
         id="stop36440-6" /><stop
         offset="1"
         stop-color="#D9D9D9"
         id="stop36442-7" /></linearGradient><linearGradient
       id="linearGradient28799-4"><stop
         id="stop28801-13"
         offset="0"
         style="stop-color:#fefefc;stop-opacity:1;" /><stop
         style="stop-color:#fefefc;stop-opacity:1"
         offset="0.75733864"
         id="stop28807-8" /><stop
         id="stop28803-8"
         offset="1"
         style="stop-color:#d4d4d4;stop-opacity:1" /></linearGradient><radialGradient
       r="14.572236"
       fy="137.66095"
       fx="223.19559"
       cy="137.66095"
       cx="223.19559"
       gradientTransform="matrix(1.0857794,-0.03431182,0.03943781,1.2479887,-154.54194,-26.542647)"
       gradientUnits="userSpaceOnUse"
       id="radialGradient29032"
       xlink:href="#linearGradient28799-4"
       inkscape:collect="always" /><radialGradient
       r="14.572236"
       fy="137.66095"
       fx="223.19559"
       cy="137.66095"
       cx="223.19559"
       gradientTransform="matrix(0.81524244,-0.03431182,0.02961133,1.2479887,-129.43743,-26.542647)"
       gradientUnits="userSpaceOnUse"
       id="radialGradient29648"
       xlink:href="#linearGradient28799-4"
       inkscape:collect="always" /><linearGradient
       inkscape:collect="always"
       id="linearGradient14392-7"><stop
         style="stop-color:#3e2a06;stop-opacity:1"
         offset="0"
         id="stop14394-8" /><stop
         style="stop-color:#ad780a;stop-opacity:1"
         offset="1"
         id="stop14396-6" /></linearGradient><linearGradient
       inkscape:collect="always"
       xlink:href="#linearGradient14392-7"
       id="linearGradient14477"
       gradientUnits="userSpaceOnUse"
       gradientTransform="matrix(0.87491199,0,0,0.81148755,60.367186,62.586953)"
       x1="442.03912"
       y1="371.54401"
       x2="490.12241"
       y2="293.58548" /><linearGradient
       inkscape:collect="always"
       xlink:href="#linearGradient14392-7"
       id="linearGradient14485"
       gradientUnits="userSpaceOnUse"
       gradientTransform="translate(4e-6)"
       x1="442.03912"
       y1="371.54401"
       x2="490.12241"
       y2="293.58548" /><clipPath
       clipPathUnits="userSpaceOnUse"
       id="clipPath14186-9"><path
         inkscape:original-d="m 137.57703,281.0191 c 6.32494,-1.3585 11.99755,4.87308 16.86679,9.13228 6.42572,5.62067 -8.54781,26.01622 13.24488,19.8293 5.86081,-1.66388 6.89528,11.31183 10.16415,16.45304 4.09971,6.44793 11.58575,13.6827 13.65231,21.03883 1.58383,5.63779 1.34339,10.90606 -1.62666,15.95302 -3.57124,6.06857 -11.7907,10.42929 -18.78877,11.20919 -5.73056,0.63864 -11.87822,-3.8351 -17.38362,-5.54906 -12.31617,-3.83432 -23.77946,-5.82074 -36.09666,-9.65174 -2.50091,-0.77785 -8.28361,-2.638 -10.96988,-3.42629 -4.51043,-1.3236 -6.46556,-0.99271 -8.72046,-4.76819 -2.68251,-4.49147 0.68051,-9.72669 3.16379,-14.79408 4.06995,-8.30524 1.91195,-17.82603 0.46203,-25.51057 -0.92235,-4.8884 -0.66071,-7.92707 2.7425,-10.79139 4.99476,-4.20385 14.53027,-1.53186 20.35272,-4.08305 5.82246,-2.55119 6.66365,-13.6939 12.93688,-15.04129 z"
         sodipodi:nodetypes="ssssssssssssssss"
         inkscape:connector-curvature="0"
         id="path14188-1"
         d="m 137.57703,281.0191 c 1.59929,-0.66295 3.3982,-0.78361 5.10074,-0.46963 1.70253,0.31398 3.31141,1.04948 4.74342,2.02239 2.86402,1.94583 4.98821,4.77774 7.02263,7.57952 4.67189,6.43406 9.16868,13.00227 13.24488,19.8293 3.30635,5.53766 6.34352,11.25685 10.16415,16.45304 2.49398,3.3919 5.3066,6.53947 7.813,9.92221 2.50639,3.38273 4.72794,7.05586 5.83931,11.11662 1.44411,5.27653 0.88463,11.09291 -1.62666,15.95302 -1.76663,3.41896 -4.47646,6.35228 -7.77242,8.33898 -3.29595,1.9867 -7.17064,3.01444 -11.01635,2.87021 -6.11413,-0.2293 -11.69944,-3.28515 -17.38362,-5.54906 -11.58097,-4.6125 -24.15978,-6.0594 -36.09666,-9.65174 -3.66859,-1.10404 -7.27582,-2.4107 -10.96988,-3.42629 -1.64125,-0.45122 -3.30866,-0.8482 -4.85875,-1.55144 -1.55008,-0.70325 -2.999548,-1.7491 -3.86171,-3.21675 -0.666391,-1.13439 -0.948386,-2.47002 -0.930187,-3.78554 0.0182,-1.31552 0.325889,-2.61453 0.773815,-3.85158 0.895851,-2.47409 2.343262,-4.71374 3.320162,-7.15696 1.59511,-3.98935 1.88169,-8.38839 1.66657,-12.67942 -0.21511,-4.29103 -0.91078,-8.54478 -1.20454,-12.83115 -0.13118,-1.91406 -0.18066,-3.85256 0.18479,-5.73598 0.36545,-1.88343 1.17577,-3.72459 2.55771,-5.05541 1.27406,-1.22693 2.96492,-1.95531 4.69643,-2.31651 1.73151,-0.3612 3.51533,-0.37747 5.28367,-0.33762 1.76833,0.0399 3.54067,0.13425 5.30351,-0.0106 1.76284,-0.14488 3.53347,-0.54055 5.06911,-1.41828 1.45996,-0.83447 2.65433,-2.0745 3.64374,-3.43424 0.9894,-1.35974 1.78909,-2.84573 2.60891,-4.31396 0.81983,-1.46823 1.66834,-2.93151 2.74157,-4.22611 1.07324,-1.2946 2.38923,-2.42304 3.94266,-3.06698"
         style="fill:#402c07;fill-opacity:1;stroke:none" /></clipPath><inkscape:path-effect
       is_visible="true"
       id="path-effect4669-1"
       effect="spiro"
       lpeversion="0" /><inkscape:path-effect
       is_visible="true"
       id="path-effect4669-4-3"
       effect="spiro"
       lpeversion="0" /><inkscape:path-effect
       effect="spiro"
       id="path-effect14972-2-2"
       is_visible="true"
       lpeversion="0" /><inkscape:path-effect
       effect="spiro"
       id="path-effect15017-9"
       is_visible="true"
       lpeversion="0" /><clipPath
       clipPathUnits="userSpaceOnUse"
       id="clipPath15031-3"><path
         style="fill:none;stroke:#729fcf;stroke-width:0.125;stroke-linecap:butt;stroke-linejoin:miter;stroke-miterlimit:4;stroke-dasharray:none;stroke-opacity:1"
         d="m 248.06066,184.61218 c -2.60091,3.4397 -5.23338,6.85555 -7.89695,10.24696 -2.83301,3.60715 -5.70116,7.1866 -8.58729,10.75139 -3.54135,4.37407 -7.15155,8.79286 -9.44912,13.93045 -1.97407,4.41422 -2.91014,9.20748 -4.26498,13.84932 -1.53862,5.27153 -3.62627,10.37023 -5.97071,15.33612 -2.1648,4.58539 -4.54978,9.06293 -6.93891,13.53553 -1.73823,3.25407 -3.50515,6.58104 -4.10782,10.22071 -0.47627,2.87632 -0.19849,5.84423 0.53376,8.66626 0.73224,2.82202 1.90964,5.5106 3.23775,8.10601 5.66724,11.07504 14.17003,20.62168 24.24176,27.92472 4.57063,3.31418 9.46669,6.18109 14.60245,8.52595 2.78247,1.27041 5.71355,2.40436 8.77186,2.45744 1.52915,0.0265 3.0741,-0.22544 4.47434,-0.84055 1.40024,-0.6151 2.65068,-1.60373 3.48254,-2.88709 1.02278,-1.5779 1.36992,-3.53829 1.16461,-5.40743 -0.2053,-1.86914 -0.93484,-3.65294 -1.91324,-5.25873 -2.38997,-3.92251 -6.1652,-6.76055 -9.79642,-9.57343 -7.84055,-6.07358 -15.42466,-12.48038 -22.68212,-19.23996 -2.04911,-1.90854 -4.0984,-3.87759 -5.53019,-6.28412 -1.3943,-2.34352 -2.14763,-5.01375 -2.65783,-7.69253 -1.39963,-7.34872 -1.0404,-15.0827 1.45958,-22.13343 0.97802,-2.75834 2.27066,-5.39225 3.51815,-8.03965 2.1622,-4.58855 4.21133,-9.26299 7.04933,-13.46723 3.53268,-5.23334 8.24484,-9.67275 11.15147,-15.27803 2.45457,-4.7335 3.49353,-10.05742 4.36185,-15.31831 0.66531,-4.03089 1.24751,-8.07549 1.74613,-12.13037"
         id="path15033-2"
         inkscape:connector-curvature="0"
         inkscape:original-d="m 248.06066,184.61218 c 0,0 -5.10626,6.34527 -7.89695,10.24696 -2.7907,3.9017 -5.73652,6.64881 -8.58729,10.75139 -2.85076,4.10259 -7.36482,9.43164 -9.44912,13.93045 -2.08429,4.49881 -2.32047,9.0356 -4.26498,13.84932 -1.94451,4.81371 -3.70129,10.64183 -5.97071,15.33612 -2.26943,4.69429 -5.37093,9.68473 -6.93891,13.53553 -1.56799,3.8508 -3.81119,5.72384 -4.10782,10.22071 -0.29663,4.49686 -0.57747,8.31749 3.77151,16.77227 4.34898,8.45478 17.23626,22.00721 24.24176,27.92472 7.00549,5.9175 9.39133,7.22492 14.60245,8.52595 5.21112,1.30104 13.85627,2.9981 16.72874,-1.2702 2.87246,-4.26829 2.27191,-5.96483 -0.74863,-10.66616 -3.02055,-4.70132 -4.82469,-5.30209 -9.79642,-9.57343 -4.97172,-4.27133 -18.63696,-14.87266 -22.68212,-19.23996 -4.04516,-4.36729 -7.10731,-3.41164 -5.53019,-6.28412 1.57712,-2.87249 -2.20738,-4.00856 -2.65783,-7.69253 -0.76361,-6.24511 0.9436,-18.71046 1.45958,-22.13343 0.51598,-3.42296 1.22371,-2.92446 3.51815,-8.03965 2.29444,-5.11519 4.12424,-8.62435 7.04933,-13.46723 2.92509,-4.84289 8.62493,-10.12787 11.15147,-15.27803 2.52654,-5.15017 3.50393,-10.72068 4.36185,-15.31831 0.85792,-4.59763 1.74613,-12.13037 1.74613,-12.13037 z"
         sodipodi:nodetypes="czzzzzzzzzzzzzzzszzzzzc" /></clipPath><inkscape:path-effect
       is_visible="true"
       id="path-effect29716-6-1"
       effect="spiro"
       lpeversion="0" /><clipPath
       clipPathUnits="userSpaceOnUse"
       id="clipPath14822-9"><path
         sodipodi:nodetypes="aaaasssaccaa"
         inkscape:connector-curvature="0"
         d="m 386.1875,285.32775 c -0.40516,-1.10369 -1.11845,-2.08156 -1.9907,-2.86987 -0.87226,-0.78832 -1.90049,-1.39229 -2.98278,-1.85155 -2.16459,-0.91852 -4.52053,-1.26149 -6.83152,-1.69556 -2.17919,-0.40931 -4.34179,-0.90631 -6.52782,-1.27734 -2.27136,-0.38551 -4.6179,-0.63213 -6.8653,-0.1253 -1.96583,0.44333 -3.7845,1.45879 -5.27172,2.81864 -1.48723,1.35984 -2.64911,3.0564 -3.48499,4.89007 -1.47218,3.22952 -1.93451,6.86503 -1.65394,10.40316 0.20882,2.63325 0.87532,5.34594 2.60877,7.33912 1.40065,1.61052 3.38733,2.61526 5.43398,3.22092 3.52502,1.04316 7.36663,0.98822 10.86038,-0.1553 5.76689,-1.93113 10.87568,-5.77387 14.33034,-10.77903 1.13861,-1.64963 2.11217,-3.44809 2.5532,-5.4034 0.33597,-1.48955 0.34831,-3.08112 -0.1779,-4.51456"
         id="path14824-1"
         inkscape:original-d="m 386.1875,285.32775 c -2.36571,-3.81321 -7.59294,-4.9003 -11.805,-6.41698 -2.08672,-0.75138 -4.32322,-1.04333 -6.52782,-1.27734 -2.27612,-0.2416 -4.71593,-0.91505 -6.8653,-0.1253 -3.64566,1.33955 -7.24986,3.80684 -8.75671,7.70871 -1.13743,2.94527 -1.80122,7.05909 -1.65394,10.40316 0.13075,2.96891 0.9633,5.07273 2.60877,7.33912 1.08803,1.49859 3.40096,2.67896 5.43398,3.22092 3.49923,0.93284 7.37483,0.82779 10.86038,-0.1553 5.98587,-2.2615 11.09272,-5.76885 14.33034,-10.77903 1.07459,-1.67639 2.15539,-3.45031 2.5532,-5.4034 0.30053,-1.4755 0.61519,-3.23621 -0.1779,-4.51456 z"
         style="fill:none;stroke:#ce5c00;stroke-width:1px;stroke-linecap:butt;stroke-linejoin:miter;stroke-opacity:1" /></clipPath><clipPath
       clipPathUnits="userSpaceOnUse"
       id="clipPath14822-2-4"><path
         sodipodi:nodetypes="aaaasssaccaa"
         inkscape:connector-curvature="0"
         d="m 386.1875,285.32775 c -0.40516,-1.10369 -1.11845,-2.08156 -1.9907,-2.86987 -0.87226,-0.78832 -1.90049,-1.39229 -2.98278,-1.85155 -2.16459,-0.91852 -4.52053,-1.26149 -6.83152,-1.69556 -2.17919,-0.40931 -4.34179,-0.90631 -6.52782,-1.27734 -2.27136,-0.38551 -4.6179,-0.63213 -6.8653,-0.1253 -1.96583,0.44333 -3.7845,1.45879 -5.27172,2.81864 -1.48723,1.35984 -2.64911,3.0564 -3.48499,4.89007 -1.47218,3.22952 -1.93451,6.86503 -1.65394,10.40316 0.20882,2.63325 0.87532,5.34594 2.60877,7.33912 1.40065,1.61052 3.38733,2.61526 5.43398,3.22092 3.52502,1.04316 7.36663,0.98822 10.86038,-0.1553 5.76689,-1.93113 10.87568,-5.77387 14.33034,-10.77903 1.13861,-1.64963 2.11217,-3.44809 2.5532,-5.4034 0.33597,-1.48955 0.34831,-3.08112 -0.1779,-4.51456"
         id="path14824-6-5"
         inkscape:original-d="m 386.1875,285.32775 c -2.36571,-3.81321 -7.59294,-4.9003 -11.805,-6.41698 -2.08672,-0.75138 -4.32322,-1.04333 -6.52782,-1.27734 -2.27612,-0.2416 -4.71593,-0.91505 -6.8653,-0.1253 -3.64566,1.33955 -7.24986,3.80684 -8.75671,7.70871 -1.13743,2.94527 -1.80122,7.05909 -1.65394,10.40316 0.13075,2.96891 0.9633,5.07273 2.60877,7.33912 1.08803,1.49859 3.40096,2.67896 5.43398,3.22092 3.49923,0.93284 7.37483,0.82779 10.86038,-0.1553 5.98587,-2.2615 11.09272,-5.76885 14.33034,-10.77903 1.07459,-1.67639 2.15539,-3.45031 2.5532,-5.4034 0.30053,-1.4755 0.61519,-3.23621 -0.1779,-4.51456 z"
         style="fill:none;stroke:#ce5c00;stroke-width:1px;stroke-linecap:butt;stroke-linejoin:miter;stroke-opacity:1" /></clipPath><linearGradient
       id="linearGradient14518-6"><stop
         id="stop14540-0"
         offset="0"
         style="stop-color:#110800;stop-opacity:1;" /><stop
         style="stop-color:#a65a00;stop-opacity:0.80000001;"
         offset="0.59066743"
         id="stop14542-5" /><stop
         style="stop-color:#ff921e;stop-opacity:0;"
         offset="1"
         id="stop14522-4" /></linearGradient><inkscape:path-effect
       is_visible="true"
       id="path-effect29716-0-0"
       effect="spiro"
       lpeversion="0" /><inkscape:path-effect
       is_visible="true"
       id="path-effect29716-0-8-3"
       effect="spiro"
       lpeversion="0" /><inkscape:path-effect
       effect="spiro"
       id="path-effect14300-7"
       is_visible="true"
       lpeversion="0" /><clipPath
       clipPathUnits="userSpaceOnUse"
       id="clipPath14489-3"><path
         style="fill:url(#linearGradient14485);fill-opacity:1;stroke:none"
         d="m 516.00562,331.8756 c -0.6714,1.71905 -1.62682,3.32679 -2.81579,4.73826 -2.6238,3.11482 -6.268,5.17039 -9.89648,7.01985 -6.1886,3.15437 -12.60169,5.92177 -18.41964,9.71654 -3.89802,2.54249 -7.4959,5.52671 -10.86016,8.74238 -2.87719,2.75012 -5.60582,5.68745 -8.83247,8.01771 -3.25567,2.35122 -7.01915,4.05426 -10.99061,4.6502 -4.83026,0.72481 -9.82134,-0.21289 -14.29898,-2.16416 -3.13754,-1.36728 -6.15569,-3.3229 -7.96301,-6.22931 -1.81425,-2.91754 -2.22807,-6.48813 -2.23266,-9.92375 -0.008,-6.07666 1.11824,-12.09004 2.17848,-18.07349 0.88097,-4.97177 1.71949,-9.95483 2.26013,-14.97502 0.98337,-9.13118 0.9763,-18.35278 0.3199,-27.51327 -0.10993,-1.53416 -0.23754,-3.0832 -0.008,-4.60412 0.22922,-1.52092 0.85475,-3.0367 2.02069,-4.03986 1.07696,-0.9266 2.52093,-1.33598 3.93947,-1.4145 1.41854,-0.0785 2.83404,0.14655 4.23982,0.35197 3.31254,0.48405 6.65159,0.8649 9.88917,1.71656 2.04284,0.53738 4.03315,1.25925 6.0722,1.81081 3.40258,0.92039 6.96639,1.36144 10.46739,0.95192 3.76917,-0.44089 7.42987,-1.85678 11.22363,-1.76474 1.55658,0.0378 3.1015,0.33171 4.58649,0.79985 1.51539,0.47772 3.00914,1.16182 4.12281,2.29512 0.84639,0.8613 1.43579,1.94539 1.87872,3.06879 0.65982,1.67352 1.01492,3.457 1.16703,5.24945 0.13475,1.58788 0.11343,3.19441 0.41433,4.75933 0.49503,2.57458 1.84746,4.92305 3.52848,6.93494 1.68102,2.01189 3.68982,3.72048 5.69641,5.40783 1.99908,1.68103 4.0106,3.35469 6.16708,4.82839 1.0121,0.69165 2.05642,1.33949 3.01736,2.10062 0.96094,0.76113 1.84466,1.6468 2.44543,2.71535 0.81492,1.44944 1.06377,3.2077 0.68307,4.82635 h 2e-5"
         id="path14491-6"
         inkscape:connector-curvature="0"
         sodipodi:nodetypes="aaaaaaaaaaaaaaaaaaaaaaaacscaa"
         inkscape:original-d="m 516.00562,331.8756 c 0.90859,1.59687 -1.57016,3.38773 -2.81579,4.73826 -2.74207,2.97299 -6.45099,4.90178 -9.89648,7.01985 -5.91373,3.63539 -12.61918,5.90302 -18.41964,9.71654 -3.88318,2.553 -7.32809,5.72221 -10.86016,8.74238 -3.0221,2.58411 -5.48201,5.87643 -8.83247,8.01771 -3.3519,2.1422 -7.0437,4.15414 -10.99061,4.6502 -4.78298,0.60114 -9.87221,-0.25577 -14.29898,-2.16416 -3.0947,-1.33413 -6.16113,-3.38144 -7.96301,-6.22931 -1.81288,-2.86525 -2.06093,-6.5375 -2.23266,-9.92375 -0.30734,-6.06031 1.36252,-12.0605 2.17848,-18.07349 0.67882,-5.00236 1.85312,-9.94325 2.26013,-14.97502 0.73946,-9.14185 -0.7797,-18.40771 0.3199,-27.51327 0.35468,-2.93704 -0.181,-6.65876 2.01238,-8.64398 2.0384,-1.84494 5.43058,-1.1212 8.17929,-1.06253 3.34492,0.0714 6.63224,0.95108 9.88917,1.71656 2.05612,0.48325 3.99816,1.41138 6.0722,1.81081 3.44031,0.66255 6.96573,1.06623 10.46739,0.95192 3.78516,-0.12356 7.43659,-1.79636 11.22363,-1.76474 1.55185,0.013 3.12359,0.28186 4.58649,0.79985 1.48266,0.52499 2.98786,1.20618 4.12281,2.29512 0.86547,0.83038 1.42933,1.95676 1.87872,3.06879 0.67163,1.66196 0.8942,3.4778 1.16703,5.24945 0.24238,1.57389 -0.1531,3.27141 0.41433,4.75933 1.83023,4.79924 5.57666,8.72712 9.22489,12.34277 1.74278,1.93455 4.03041,3.53404 6.16708,4.82839 2.26886,1.37444 4.3675,2.44991 5.46279,4.81597 0.65901,1.48517 -0.54371,3.76097 0.68307,4.82635 z" /></clipPath><inkscape:path-effect
       effect="spiro"
       id="path-effect14300-2-7"
       is_visible="true"
       lpeversion="0" /><clipPath
       clipPathUnits="userSpaceOnUse"
       id="clipPath14481-1"><path
         style="fill:url(#linearGradient14485);fill-opacity:1;stroke:none"
         d="m 516.00562,331.8756 c -0.6714,1.71905 -1.62682,3.32679 -2.81579,4.73826 -2.6238,3.11482 -6.268,5.17039 -9.89648,7.01985 -6.1886,3.15437 -12.60169,5.92177 -18.41964,9.71654 -3.89802,2.54249 -7.4959,5.52671 -10.86016,8.74238 -2.87719,2.75012 -5.60582,5.68745 -8.83247,8.01771 -3.25567,2.35122 -7.01915,4.05426 -10.99061,4.6502 -4.83026,0.72481 -9.82134,-0.21289 -14.29898,-2.16416 -3.13754,-1.36728 -6.15569,-3.3229 -7.96301,-6.22931 -1.81425,-2.91754 -2.22807,-6.48813 -2.23266,-9.92375 -0.008,-6.07666 1.11824,-12.09004 2.17848,-18.07349 0.88097,-4.97177 1.71949,-9.95483 2.26013,-14.97502 0.98337,-9.13118 0.9763,-18.35278 0.3199,-27.51327 -0.10993,-1.53416 -0.23754,-3.0832 -0.008,-4.60412 0.22922,-1.52092 0.85475,-3.0367 2.02069,-4.03986 1.07696,-0.9266 2.52093,-1.33598 3.93947,-1.4145 1.41854,-0.0785 2.83404,0.14655 4.23982,0.35197 3.31254,0.48405 6.65159,0.8649 9.88917,1.71656 2.04284,0.53738 4.03315,1.25925 6.0722,1.81081 3.40258,0.92039 6.96639,1.36144 10.46739,0.95192 3.76917,-0.44089 7.42987,-1.85678 11.22363,-1.76474 1.55658,0.0378 3.1015,0.33171 4.58649,0.79985 1.51539,0.47772 3.00914,1.16182 4.12281,2.29512 0.84639,0.8613 1.43579,1.94539 1.87872,3.06879 0.65982,1.67352 1.01492,3.457 1.16703,5.24945 0.13475,1.58788 0.11343,3.19441 0.41433,4.75933 0.49503,2.57458 1.84746,4.92305 3.52848,6.93494 1.68102,2.01189 3.68982,3.72048 5.69641,5.40783 1.99908,1.68103 4.0106,3.35469 6.16708,4.82839 1.0121,0.69165 2.05642,1.33949 3.01736,2.10062 0.96094,0.76113 1.84466,1.6468 2.44543,2.71535 0.81492,1.44944 1.06377,3.2077 0.68307,4.82635 h 2e-5"
         id="path14483-3"
         inkscape:connector-curvature="0"
         sodipodi:nodetypes="aaaaaaaaaaaaaaaaaaaaaaaacscaa"
         inkscape:original-d="m 516.00562,331.8756 c 0.90859,1.59687 -1.57016,3.38773 -2.81579,4.73826 -2.74207,2.97299 -6.45099,4.90178 -9.89648,7.01985 -5.91373,3.63539 -12.61918,5.90302 -18.41964,9.71654 -3.88318,2.553 -7.32809,5.72221 -10.86016,8.74238 -3.0221,2.58411 -5.48201,5.87643 -8.83247,8.01771 -3.3519,2.1422 -7.0437,4.15414 -10.99061,4.6502 -4.78298,0.60114 -9.87221,-0.25577 -14.29898,-2.16416 -3.0947,-1.33413 -6.16113,-3.38144 -7.96301,-6.22931 -1.81288,-2.86525 -2.06093,-6.5375 -2.23266,-9.92375 -0.30734,-6.06031 1.36252,-12.0605 2.17848,-18.07349 0.67882,-5.00236 1.85312,-9.94325 2.26013,-14.97502 0.73946,-9.14185 -0.7797,-18.40771 0.3199,-27.51327 0.35468,-2.93704 -0.181,-6.65876 2.01238,-8.64398 2.0384,-1.84494 5.43058,-1.1212 8.17929,-1.06253 3.34492,0.0714 6.63224,0.95108 9.88917,1.71656 2.05612,0.48325 3.99816,1.41138 6.0722,1.81081 3.44031,0.66255 6.96573,1.06623 10.46739,0.95192 3.78516,-0.12356 7.43659,-1.79636 11.22363,-1.76474 1.55185,0.013 3.12359,0.28186 4.58649,0.79985 1.48266,0.52499 2.98786,1.20618 4.12281,2.29512 0.86547,0.83038 1.42933,1.95676 1.87872,3.06879 0.67163,1.66196 0.8942,3.4778 1.16703,5.24945 0.24238,1.57389 -0.1531,3.27141 0.41433,4.75933 1.83023,4.79924 5.57666,8.72712 9.22489,12.34277 1.74278,1.93455 4.03041,3.53404 6.16708,4.82839 2.26886,1.37444 4.3675,2.44991 5.46279,4.81597 0.65901,1.48517 -0.54371,3.76097 0.68307,4.82635 z" /></clipPath><inkscape:path-effect
       effect="spiro"
       id="path-effect14300-2-2-0"
       is_visible="true"
       lpeversion="0" /><clipPath
       clipPathUnits="userSpaceOnUse"
       id="clipPath14473-5"><path
         style="fill:url(#linearGradient14477);fill-opacity:1;stroke:none"
         d="m 511.82669,331.89986 c -0.60617,1.40358 -1.44178,2.70776 -2.46357,3.84504 -2.32524,2.58805 -5.50706,4.22246 -8.65855,5.69652 -5.42045,2.53534 -11.00071,4.7788 -16.11556,7.88485 -3.38301,2.05437 -6.53696,4.47221 -9.50169,7.09434 -2.52461,2.23286 -4.92977,4.6271 -7.72763,6.50627 -2.88313,1.93644 -6.17534,3.29888 -9.61582,3.77358 -4.21817,0.58201 -8.55335,-0.18335 -12.51035,-1.75619 -2.7091,-1.07682 -5.36625,-2.6185 -6.96693,-5.05501 -1.53813,-2.3413 -1.9333,-5.25173 -1.95338,-8.053 -0.0354,-4.93859 0.96501,-9.81816 1.90598,-14.66641 0.78215,-4.02995 1.52682,-8.0717 1.97741,-12.15204 0.81784,-7.40607 0.66114,-14.88536 0.27989,-22.32668 -0.064,-1.24906 -0.13361,-2.5105 0.0789,-3.74301 0.21256,-1.23251 0.73646,-2.45247 1.68171,-3.27147 0.93914,-0.8137 2.20952,-1.15942 3.45104,-1.2115 1.24152,-0.0521 2.47642,0.16381 3.70512,0.34927 2.88969,0.43617 5.81087,0.7091 8.65215,1.39297 1.78651,0.43 3.53091,1.02011 5.31265,1.46945 2.98632,0.75312 6.09645,1.10709 9.15804,0.77247 3.2941,-0.36004 6.50688,-1.50957 9.81969,-1.43207 1.35838,0.0318 2.70755,0.27142 4.01277,0.64907 1.31265,0.3798 2.61744,0.9202 3.6071,1.86246 0.72535,0.69061 1.25006,1.56936 1.64371,2.49029 0.57625,1.34814 0.88626,2.79994 1.02105,4.25986 0.11897,1.28855 0.10468,2.59405 0.36251,3.86214 0.4369,2.14878 1.63966,4.08139 3.11506,5.70353 1.4754,1.62214 3.22406,2.96752 4.9559,4.31247 1.75634,1.36398 3.50975,2.7398 5.39565,3.91818 0.88228,0.55128 1.79349,1.05932 2.63473,1.67142 0.84123,0.61209 1.61878,1.33907 2.14473,2.23668 0.68386,1.16711 0.90229,2.59857 0.59763,3.91652 h 2e-5"
         id="path14475-9"
         inkscape:connector-curvature="0"
         sodipodi:nodetypes="aaaaaaaaaaaaaaaaaaaaaaaacscaa"
         inkscape:original-d="m 511.82669,331.89986 c 0.79493,1.29584 -1.37375,2.7491 -2.46357,3.84504 -2.39907,2.41255 -5.64405,3.97773 -8.65855,5.69652 -5.17399,2.95008 -11.04067,4.79023 -16.11556,7.88485 -3.39744,2.07173 -6.41144,4.64351 -9.50169,7.09434 -2.64407,2.09697 -4.79627,4.76865 -7.72763,6.50627 -2.93262,1.73837 -6.16262,3.37103 -9.61582,3.77358 -4.18468,0.48781 -8.63731,-0.20756 -12.51035,-1.75619 -2.70759,-1.08263 -5.39044,-2.744 -6.96693,-5.05501 -1.58611,-2.32511 -1.80313,-5.3051 -1.95338,-8.053 -0.2689,-4.91787 1.19208,-9.78694 1.90598,-14.66641 0.59391,-4.05935 1.62131,-8.06882 1.97741,-12.15204 0.64696,-7.4185 -0.68217,-14.93763 0.27989,-22.32668 0.31031,-2.38337 -0.15836,-5.4035 1.76065,-7.01448 1.78342,-1.49715 4.75128,-0.90984 7.15616,-0.86223 2.92651,0.0579 5.80263,0.77179 8.65215,1.39297 1.79893,0.39215 3.49804,1.14531 5.31265,1.46945 3.00996,0.53765 6.0944,0.86523 9.15804,0.77247 3.31168,-0.10027 6.50636,-1.45773 9.81969,-1.43207 1.35773,0.0105 2.73287,0.22873 4.01277,0.64907 1.2972,0.42602 2.61412,0.9788 3.6071,1.86246 0.75721,0.67384 1.25054,1.58789 1.64371,2.49029 0.58762,1.34866 0.78235,2.82219 1.02105,4.25986 0.21206,1.27719 -0.13395,2.65471 0.36251,3.86214 1.60129,3.89452 4.87908,7.08195 8.07096,10.016 1.52478,1.56986 3.52626,2.86783 5.39565,3.91818 1.98506,1.11534 3.82118,1.98807 4.77946,3.9081 0.57658,1.2052 -0.47569,3.05198 0.59763,3.91652 z" /></clipPath><inkscape:path-effect
       is_visible="true"
       id="path-effect4582-3"
       effect="spiro"
       lpeversion="0" /><inkscape:path-effect
       is_visible="true"
       id="path-effect4500-7"
       effect="spiro"
       lpeversion="0" /><clipPath
       clipPathUnits="userSpaceOnUse"
       id="clipPath14656-7"><path
         sodipodi:nodetypes="aaaaassssaaaaaa"
         inkscape:connector-curvature="0"
         d="m 304.84727,225.44951 c 6.01627,4.92338 9.77707,12.317 10.94319,20.00305 1.8254,12.03148 -2.34636,24.07488 -6.44591,35.53273 -0.81749,2.28481 -1.63978,4.59033 -1.96473,6.99513 -0.32495,2.4048 -0.11897,4.94825 1.02948,7.08594 1.30279,2.42497 3.73227,4.12469 6.36677,4.92292 2.58877,0.78438 5.39365,0.76103 8.01466,0.0922 2.62101,-0.66882 5.06097,-1.96774 7.18716,-3.63996 5.48002,-4.30997 8.75799,-10.98552 10.01043,-17.84394 1.25243,-6.85841 0.63908,-13.92879 -0.551,-20.7983 -1.62313,-9.36916 -4.30898,-18.53961 -7.74003,-27.40773 -2.51766,-6.50732 -5.46794,-12.91081 -9.61753,-18.52016 -4.04611,-5.46946 -9.16208,-10.08954 -13.10336,-15.63502 -2.73209,-3.84412 -4.89983,-8.13097 -8.1917,-11.50812 -1.64594,-1.68858 -3.57654,-3.13527 -5.76975,-4.00143 -2.19321,-0.86616 -4.66356,-1.12446 -6.93254,-0.48249 -1.50468,0.42573 -2.89193,1.23739 -4.03791,2.30136 -1.14598,1.06397 -2.05268,2.37637 -2.69275,3.80312 -1.28015,2.85349 -1.47719,6.11241 -0.96512,9.1977 0.66114,3.98343 2.44407,7.69333 4.46569,11.18873 2.27396,3.93169 4.918,7.71926 8.38442,10.65407 3.5985,3.04664 7.96161,5.07413 11.61053,8.0602"
         id="path14658-9"
         inkscape:original-d="m 304.84727,225.44951 c 5.05628,5.63479 9.72833,12.47181 10.94319,20.00305 1.91724,11.88535 -4.97006,23.58228 -6.44591,35.53273 -0.57645,4.66766 -2.84839,9.7988 -0.93525,14.08107 1.10334,2.46967 3.76154,4.35176 6.36677,4.92292 5.08221,1.1142 11.95719,2.41291 15.20182,-3.54776 6.07775,-11.16533 10.5961,-26.78641 9.45943,-38.64224 -0.906,-9.44981 -3.86858,-18.61978 -7.74003,-27.40773 -2.817,-6.39442 -6.14704,-12.5833 -9.61753,-18.52016 -3.44146,-5.88721 -8.20051,-10.94245 -13.10336,-15.63502 -6.34842,-6.07614 -12.40311,-17.98386 -20.89399,-15.99204 -5.48499,1.28669 -7.45029,9.57719 -7.69578,15.30218 -0.17245,4.02188 2.46425,7.71677 4.46569,11.18873 2.26238,3.92465 5.10447,7.56255 8.38442,10.65407 3.43735,3.23988 8.4511,4.53927 11.61053,8.0602 z"
         style="fill:none;stroke:#c17d11;stroke-width:1px;stroke-linecap:butt;stroke-linejoin:miter;stroke-opacity:1" /></clipPath><inkscape:path-effect
       is_visible="true"
       id="path-effect29707-7-6"
       effect="spiro"
       lpeversion="0" /><inkscape:path-effect
       is_visible="true"
       id="path-effect29553-7"
       effect="spiro"
       lpeversion="0" /><clipPath
       id="clipPath29644-8"
       clipPathUnits="userSpaceOnUse"><path
         sodipodi:nodetypes="zzzzzzz"
         inkscape:connector-curvature="0"
         inkscape:original-d="m 54.232441,122.36218 c -3.79199,4.78949 -8.5176,11.69104 -8.19273,17.25 0.32487,5.55896 3.86025,13.93486 8.37542,16 4.51517,2.06514 5.75436,0.0125 8.32902,-2.5 2.57466,-2.51247 3.85871,-7.34762 4.00585,-12.25 0.14713,-4.90238 -3.03534,-11.91949 -5.43855,-15.25 -2.40321,-3.33051 -3.28702,-8.03949 -7.07901,-3.25 z"
         id="path29646-8"
         d="m 54.232441,122.36218 c -1.780966,0.097 -3.484616,0.91899 -4.787851,2.1367 -1.303235,1.21771 -2.221372,2.81176 -2.786181,4.50357 -1.129618,3.38363 -0.875481,7.05177 -0.618698,10.60973 0.23251,3.22162 0.470404,6.50533 1.676785,9.50158 0.60319,1.49813 1.450247,2.91021 2.580338,4.06395 1.130092,1.15374 2.551736,2.04189 4.118297,2.43447 1.468838,0.36809 3.038161,0.29183 4.482784,-0.16209 1.444623,-0.45391 2.763917,-1.27887 3.846236,-2.33791 1.57904,-1.54507 2.643262,-3.5662 3.253449,-5.68947 0.610186,-2.12328 0.784157,-4.35155 0.752401,-6.56053 -0.03974,-2.76435 -0.400909,-5.53851 -1.265755,-8.16439 -0.864846,-2.62588 -2.245742,-5.10327 -4.172795,-7.08561 -0.933308,-0.96009 -1.997766,-1.80513 -3.198586,-2.39747 -1.200819,-0.59233 -2.54344,-0.92535 -3.880424,-0.85253"
         style="fill:url(#radialGradient29648);fill-opacity:1;stroke:none" /></clipPath><linearGradient
       id="linearGradient28469-0"><stop
         style="stop-color:#d2940a;stop-opacity:1"
         offset="0"
         id="stop28479-4" /><stop
         style="stop-color:#d89c08;stop-opacity:1"
         offset="0.75143719"
         id="stop28477-2" /><stop
         id="stop28485-7"
         offset="0.86579126"
         style="stop-color:#b67e07;stop-opacity:1;" /><stop
         id="stop28473-1"
         offset="1"
         style="stop-color:#946106;stop-opacity:1" /></linearGradient><inkscape:path-effect
       is_visible="true"
       id="path-effect28463-4"
       effect="spiro"
       lpeversion="0" /><inkscape:path-effect
       is_visible="true"
       id="path-effect28489-4"
       effect="spiro"
       lpeversion="0" /><inkscape:path-effect
       is_visible="true"
       id="path-effect28273-54-7"
       effect="spiro"
       lpeversion="0" /><linearGradient
       id="linearGradient28275-8"><stop
         id="stop28277-1"
         offset="0"
         style="stop-color:#ad780a;stop-opacity:1" /><stop
         style="stop-color:#d89e08;stop-opacity:1"
         offset="0.11972899"
         id="stop28291-9" /><stop
         style="stop-color:#edb80b;stop-opacity:1"
         offset="0.25514477"
         id="stop28289-6" /><stop
         style="stop-color:#ebc80d;stop-opacity:1"
         offset="0.39194193"
         id="stop28287-6" /><stop
         style="stop-color:#f5d838;stop-opacity:1"
         offset="0.52741116"
         id="stop28285-7" /><stop
         style="stop-color:#f6d811;stop-opacity:1"
         offset="0.76906693"
         id="stop28283-7" /><stop
         id="stop28279-5"
         offset="1"
         style="stop-color:#f5cd31;stop-opacity:1" /></linearGradient><inkscape:path-effect
       is_visible="true"
       id="path-effect28273-44"
       effect="spiro"
       lpeversion="0" /><inkscape:path-effect
       is_visible="true"
       id="path-effect28384-7"
       effect="spiro"
       lpeversion="0" /><linearGradient
       id="linearGradient29529-6"><stop
         id="stop29531-0"
         offset="0"
         style="stop-color:#3a2903;stop-opacity:1;" /><stop
         style="stop-color:#735208;stop-opacity:1"
         offset="0.55472803"
         id="stop29539-7" /><stop
         id="stop29533-8"
         offset="1"
         style="stop-color:#ac8c04;stop-opacity:1" /></linearGradient><inkscape:path-effect
       is_visible="true"
       id="path-effect29455-3"
       effect="spiro"
       lpeversion="0" /><linearGradient
       id="linearGradient29477-3"><stop
         id="stop29479-5"
         offset="0"
         style="stop-color:#757574;stop-opacity:0" /><stop
         style="stop-color:#757574;stop-opacity:1;"
         offset="0.26291031"
         id="stop29487-5" /><stop
         style="stop-color:#757574;stop-opacity:1;"
         offset="0.5"
         id="stop29485-0" /><stop
         id="stop29481-3"
         offset="1"
         style="stop-color:#757574;stop-opacity:0" /></linearGradient><linearGradient
       id="linearGradient29336-6"><stop
         id="stop29338-1"
         offset="0"
         style="stop-color:#646464;stop-opacity:0" /><stop
         style="stop-color:#646464;stop-opacity:0.5825243"
         offset="0.30628255"
         id="stop29344-7" /><stop
         id="stop29354-5"
         offset="0.47000006"
         style="stop-color:#646464;stop-opacity:1" /><stop
         style="stop-color:#646464;stop-opacity:0.25728154"
         offset="0.72834015"
         id="stop29356-3" /><stop
         id="stop29340-6"
         offset="1"
         style="stop-color:#646464;stop-opacity:0;" /></linearGradient><linearGradient
       id="linearGradient28976-3"><stop
         id="stop28978-7"
         offset="0"
         style="stop-color:#747474;stop-opacity:1" /><stop
         style="stop-color:#8c8c8c;stop-opacity:1;"
         offset="0.125"
         id="stop29259-5" /><stop
         style="stop-color:#a4a4a4;stop-opacity:1;"
         offset="0.25"
         id="stop29257-0" /><stop
         style="stop-color:#d4d4d4;stop-opacity:1"
         offset="0.5"
         id="stop28984-4" /><stop
         id="stop28986-0"
         offset="0.61919296"
         style="stop-color:#d4d4d4;stop-opacity:1" /><stop
         id="stop28980-2"
         offset="1"
         style="stop-color:#7c7c7c;stop-opacity:1" /></linearGradient><inkscape:path-effect
       is_visible="true"
       id="path-effect28974-8"
       effect="spiro"
       lpeversion="0" /><clipPath
       id="clipPath29028-5"
       clipPathUnits="userSpaceOnUse"><path
         sodipodi:nodetypes="aaaaaaaa"
         inkscape:connector-curvature="0"
         inkscape:original-d="m 85.75,122.36218 c -2.54738,2.12715 -5.20812,4.59907 -6.25,7.75 -1.30914,3.95917 -1.63336,8.91703 0.5,12.5 3.91901,6.58194 12.38353,13.85135 19.75,11.75 4.87452,-1.3905 6.10748,-8.51023 7,-13.5 0.59149,-3.30679 0.59578,-7.19325 -1.25,-10 -3.61233,-5.49303 -10.4265,-9.89357 -17,-10 -1.04403,-0.0169 -1.94852,0.83074 -2.75,1.5 z"
         id="path29030-7"
         d="m 85.75,122.36218 c -2.780425,1.91023 -5.110569,4.57487 -6.25,7.75 -1.436029,4.00163 -0.885838,8.48071 0.5,12.5 1.419488,4.11688 3.793788,8.04098 7.37932,10.51234 1.792766,1.23567 3.868091,2.08301 6.030402,2.33859 2.162311,0.25558 4.409274,-0.0949 6.340278,-1.10093 2.35312,-1.22596 4.14782,-3.37278 5.26217,-5.78076 1.11436,-2.40798 1.5888,-5.0701 1.73783,-7.71924 0.18989,-3.37546 -0.14047,-6.80646 -1.25,-10 -1.20527,-3.46909 -3.39005,-6.67055 -6.472754,-8.6666 -1.541351,-0.99803 -3.291947,-1.68356 -5.110883,-1.93515 -1.818936,-0.25158 -3.704766,-0.0633 -5.416363,0.60175 -0.975471,0.37901 -1.887438,0.9074 -2.75,1.5"
         style="fill:url(#radialGradient29032);fill-opacity:1;stroke:none" /></clipPath><inkscape:path-effect
       is_visible="true"
       id="path-effect28881-6"
       effect="spiro"
       lpeversion="0" /><linearGradient
       id="linearGradient28935-8"><stop
         id="stop28937-7"
         offset="0"
         style="stop-color:#949494;stop-opacity:0.39215687;" /><stop
         style="stop-color:#949494;stop-opacity:1;"
         offset="0.5"
         id="stop28943-3" /><stop
         id="stop28939-8"
         offset="1"
         style="stop-color:#949494;stop-opacity:0.39215687;" /></linearGradient><linearGradient
       id="linearGradient28853-5"><stop
         id="stop28855-3"
         offset="0"
         style="stop-color:#020204;stop-opacity:1" /><stop
         style="stop-color:#020204;stop-opacity:1"
         offset="0.73448181"
         id="stop28865-0" /><stop
         id="stop28857-9"
         offset="1"
         style="stop-color:#5c5c5c;stop-opacity:1;" /></linearGradient><inkscape:path-effect
       is_visible="true"
       id="path-effect28851-0"
       effect="spiro"
       lpeversion="0" /><inkscape:path-effect
       is_visible="true"
       id="path-effect28273-4-2"
       effect="spiro"
       lpeversion="0" /><inkscape:path-effect
       is_visible="true"
       id="path-effect28797-81"
       effect="spiro"
       lpeversion="0" /><inkscape:path-effect
       is_visible="true"
       id="path-effect28797-8-1"
       effect="spiro"
       lpeversion="0" /><inkscape:path-effect
       is_visible="true"
       id="path-effect28463-0-7"
       effect="spiro"
       lpeversion="0" /><inkscape:path-effect
       is_visible="true"
       id="path-effect28463-8-0"
       effect="spiro"
       lpeversion="0" /><inkscape:path-effect
       is_visible="true"
       id="path-effect29721-2"
       effect="spiro"
       lpeversion="0" /><inkscape:path-effect
       is_visible="true"
       id="path-effect28714-5"
       effect="spiro"
       lpeversion="0" /><inkscape:path-effect
       is_visible="true"
       id="path-effect29678-4-6"
       effect="spiro"
       lpeversion="0" /><inkscape:path-effect
       is_visible="true"
       id="path-effect29678-1"
       effect="spiro"
       lpeversion="0" /><inkscape:path-effect
       is_visible="true"
       id="path-effect29672-0"
       effect="spiro"
       lpeversion="0" /><linearGradient
       x1="12"
       y1="0"
       x2="12"
       y2="12"
       gradientUnits="userSpaceOnUse"
       gradientTransform="matrix(0.6875,0,0,0.6875,0.75001,0.750021)"
       spreadMethod="pad"
       id="linearGradient1744"><stop
         style="stop-opacity:1;stop-color:#ffffff"
         offset="0"
         id="stop1740" /><stop
         style="stop-opacity:1;stop-color:#d9d9d9"
         offset="1"
         id="stop1742" /></linearGradient><linearGradient
       x1="12"
       y1="0"
       x2="12"
       y2="12"
       gradientUnits="userSpaceOnUse"
       gradientTransform="matrix(0.6875,0,0,0.6875,0.749671,0.749995)"
       spreadMethod="pad"
       id="linearGradient31395"><stop
         style="stop-opacity:1;stop-color:#ffffff"
         offset="0"
         id="stop31391" /><stop
         style="stop-opacity:1;stop-color:#d9d9d9"
         offset="1"
         id="stop31393" /></linearGradient><linearGradient
       x1="19"
       y1="8.5"
       x2="5.85918"
       y2="20.601801"
       gradientUnits="userSpaceOnUse"
       gradientTransform="matrix(0.857143,0,0,0.857143,-1.285714,-2.785714)"
       spreadMethod="pad"
       id="linearGradient31419"><stop
         style="stop-opacity:1;stop-color:#777777"
         offset="0"
         id="stop31415" /><stop
         style="stop-opacity:1;stop-color:#333333"
         offset="1"
         id="stop31417" /></linearGradient><clipPath
       clipPathUnits="userSpaceOnUse"
       id="clipPath31429"><path
         d="M 0,0 H 19 V 19 H 0 Z"
         id="path31427" /></clipPath><radialGradient
       fx="0"
       fy="0"
       cx="0"
       cy="0"
       r="1"
       gradientUnits="userSpaceOnUse"
       gradientTransform="matrix(0,22.000002,-22.000002,0,56.247888,2.7685333)"
       spreadMethod="pad"
       id="radialGradient12763-3"><stop
         style="stop-opacity:1;stop-color:#a4a4a4"
         offset="0"
         id="stop12759-6" /><stop
         style="stop-opacity:1;stop-color:#626262"
         offset="1"
         id="stop12761-7" /></radialGradient><linearGradient
       id="a-2"
       x1="-240.47"
       x2="-240.47"
       y1="-60.605"
       y2="-29.025999"
       gradientTransform="matrix(0.96667,0,0,0.95,262.45,67.575)"
       gradientUnits="userSpaceOnUse"><stop
         stop-color="#4285db"
         offset="0"
         id="stop13351"
         style="stop-color:#a89eff;stop-opacity:1;" /><stop
         stop-color="#42b9db"
         offset="1"
         id="stop13353"
         style="stop-color:#6abaff;stop-opacity:1;" /></linearGradient><linearGradient
       id="b"
       x1="10.583"
       x2="225.69"
       y1="-184.67999"
       y2="-184.67999"
       gradientTransform="matrix(0.11417,0,0,0.11417,18.557,59.5)"
       gradientUnits="userSpaceOnUse"><stop
         stop-color="#fafbfb"
         offset="0"
         id="stop13356" /><stop
         stop-color="#fafbfb"
         stop-opacity="0"
         offset="1"
         id="stop13358" /></linearGradient><linearGradient
       id="c"
       x1="520"
       x2="410"
       y1="-620"
       y2="-620"
       gradientTransform="matrix(0.0302,0,0,0.0302,18.557,59.5)"
       gradientUnits="userSpaceOnUse"><stop
         offset="0"
         id="stop13361" /><stop
         stop-opacity="0"
         offset="1"
         id="stop13363" /></linearGradient><clipPath
       clipPathUnits="userSpaceOnUse"
       id="clipPath7096"><g
         id="g7102"><g
           id="g7100"><path
             d="M -1.278644,-2.4280619 H 27.091183 V 25.941765 H -1.278644 Z"
             id="path7098"
             style="stroke-width:1.49315" /></g></g></clipPath><clipPath
       clipPathUnits="userSpaceOnUse"
       id="clipPath7104"><g
         id="g7110"><g
           id="g7108"><path
             d="M -1.278644,-2.4280619 H 27.091183 V 25.941765 H -1.278644 Z"
             id="path7106"
             style="stroke-width:1.49315" /></g></g></clipPath><linearGradient
       inkscape:collect="always"
       xlink:href="#a"
       id="linearGradient8909"
       gradientUnits="userSpaceOnUse"
       gradientTransform="matrix(0.99324236,0,0,0.78268164,3.736813,-213.36718)"
       x1="13.229"
       y1="297"
       x2="2.1170001"
       y2="280.07001" /><clipPath
       clipPathUnits="userSpaceOnUse"
       id="clipPath512"><rect
         style="opacity:0.3;fill:#ffffff;stroke-width:0.432;stroke-linecap:round;stroke-linejoin:round;stroke-opacity:0.15;paint-order:stroke markers fill"
         id="rect514"
         width="656"
         height="914"
         x="-342"
         y="-510" /></clipPath><clipPath
       clipPathUnits="userSpaceOnUse"
       id="clipPath11520"><rect
         style="opacity:1;fill:#464c75;fill-opacity:1;stroke:none;stroke-width:3;stroke-linecap:round;stroke-linejoin:round;stroke-dasharray:none;stroke-dashoffset:0;stroke-opacity:1;paint-order:stroke markers fill"
         id="rect11522"
         width="109.60155"
         height="149.90663"
         x="-248.19447"
         y="-71.417786"
         ry="0.24179123" /></clipPath></defs><g
     id="g31381"
     transform="matrix(1.3333333,0,0,1.3333333,-4.5225532e-4,-3.504174e-5)"><g
       id="g31383"><g
         id="g31389"><path
           d="m 7.195,0.836 c 0.09,0 0.176,-0.012 0.258,-0.035 1.078,-0.071 2.156,-0.067 3.231,0.008 0.976,0.078 1.921,0.289 2.836,0.636 1.519,0.625 2.558,1.711 3.121,3.254 0.316,0.93 0.507,1.887 0.566,2.867 0.078,1.235 0.051,2.465 -0.086,3.696 -0.105,0.863 -0.328,1.691 -0.672,2.488 -0.637,1.383 -1.672,2.336 -3.101,2.859 C 12.191,17 11,17.207 9.773,17.227 8.398,17.301 7.035,17.195 5.684,16.918 3.203,16.367 1.668,14.852 1.09,12.375 0.844,11.262 0.73,10.133 0.754,8.992 0.727,7.777 0.855,6.582 1.141,5.402 1.75,3.09 3.219,1.656 5.547,1.102 6.09,0.969 6.641,0.879 7.195,0.836 Z"
           style="fill:url(#linearGradient31395);fill-rule:evenodd;stroke:none"
           id="path31397" /></g></g></g><g
     id="g19194"
     transform="matrix(1.4931488,0,0,1.4931488,-1.278644,-2.4280619)" /><g
     id="g9445"
     transform="matrix(1.186143,0,0,1.186143,-2.4561178,-4.0159036)"><path
       d="m 12.187498,15.739893 -2.307843,1.730882 c 0,2.018872 -0.28848,2.018872 -1.730391,2.884805 l 4.038234,0.287989 4.038235,-0.288481 c -1.441911,-0.86495 -1.730391,-0.86495 -1.730391,-2.884804 z"
       fill="#b3b3b3"
       id="path13325"
       style="stroke-width:0.491449" /><path
       d="m 8.149264,20.355088 v 0.576961 h 8.076961 v -0.576961 z"
       fill="#cccccc"
       id="path13327"
       style="stroke-width:0.491449" /><rect
       x="4.6875"
       y="7.4429507"
       width="15"
       height="10.036487"
       ry="1.1744531"
       fill="#303030"
       id="rect13329"
       style="stroke-width:0.483148"
       rx="1.1744531" /><path
       id="path8903"
       style="fill:url(#linearGradient8909);stroke-width:0.851888;paint-order:stroke markers fill"
       d="m 5.939453,7.7128906 c -0.553782,0 -1,0.4381924 -1,0.9824219 v 7.5312495 c 0,0.54423 0.446218,0.982422 1,0.982422 h 12.496094 c 0.553782,0 1,-0.438192 1,-0.982422 V 8.6953125 c 0,-0.5442295 -0.446218,-0.9824219 -1,-0.9824219 z" /><rect
       x="5.8578262"
       y="7.9690232"
       width="0.96499318"
       height="0.48237592"
       ry="0.24179123"
       opacity="0.35"
       style="stroke-width:0.912147;paint-order:stroke markers fill"
       id="rect3888" /><path
       id="path3898"
       style="opacity:0.3;stroke-width:0.937271;paint-order:stroke markers fill"
       d="m 5.939453,7.7128906 c -0.551792,0 -0.996811,0.435053 -1,0.9765625 h 14.496094 c -0.0032,-0.5415095 -0.448208,-0.9765625 -1,-0.9765625 z" /><rect
       x="10.925308"
       y="7.9690232"
       width="2.4133275"
       height="0.48237592"
       ry="0.24179123"
       opacity="0.35"
       style="stroke-width:0.912147;paint-order:stroke markers fill"
       id="rect3890" /><rect
       x="18.164566"
       y="7.9690232"
       width="0.48237592"
       height="0.48237592"
       ry="0.24179123"
       opacity="0.35"
       style="stroke-width:0.912147;paint-order:stroke markers fill"
       id="rect3892" /><rect
       x="17.199333"
       y="7.9690232"
       width="0.72416711"
       height="0.48237592"
       ry="0.24179123"
       opacity="0.35"
       style="stroke-width:0.912147;paint-order:stroke markers fill"
       id="rect3894" /><rect
       x="16.475403"
       y="7.9690232"
       width="0.48237592"
       height="0.48237592"
       ry="0.24179123"
       opacity="0.35"
       style="stroke-width:0.912147;paint-order:stroke markers fill"
       id="rect3896" /></g><path
     id="path722"
     style="fill:#484b75;fill-opacity:1;stroke:none;stroke-width:1.74818;stroke-linecap:round;stroke-linejoin:round;stroke-dasharray:none;stroke-dashoffset:0;stroke-opacity:1;paint-order:stroke markers fill"
     d="m 12.004035,6.9263625 c -0.03655,5.4e-6 -0.242005,0.068168 -0.805487,0.2672601 -0.105304,0.037206 -0.273613,0.095695 -0.830034,0.2883353 L 10.1793,7.5474999 10.0818,7.694794 C 10.028096,7.7758295 9.9266292,7.9297014 9.856458,8.0366269 9.7862868,8.1435529 9.639341,8.3669116 9.529911,8.5331658 9.4204811,8.6994198 9.3011616,8.8817544 9.2647353,8.9382245 l -0.066239,0.1025968 -0.037748,0.3883841 c -0.038528,0.397178 -0.081364,0.8407166 -0.1461375,1.5113856 -0.020101,0.208101 -0.03986,0.419558 -0.044003,0.469905 l -0.00762,0.09148 0.2832396,0.823782 c 0.1557353,0.453123 0.2930972,0.854024 0.3052394,0.890944 0.012125,0.03693 0.076764,0.226596 0.1435896,0.421271 0.066825,0.194675 0.1449672,0.422587 0.173697,0.506498 0.034054,0.09946 0.065308,0.1679 0.089859,0.196856 0.0207,0.02443 0.2245286,0.251934 0.4527646,0.505571 0.22824,0.253636 0.445029,0.495237 0.481951,0.536835 0.03692,0.0416 0.162342,0.180754 0.278608,0.309179 l 0.211445,0.233447 h 0.620674 0.620674 l 0.16119,-0.179948 c 0.08862,-0.09902 0.175777,-0.196633 0.193612,-0.216773 0.168289,-0.190025 0.935147,-1.050912 0.940274,-1.055609 0.0036,-0.0033 0.04644,-0.05093 0.09518,-0.105606 l 0.0887,-0.09935 0.1598,-0.468052 c 0.08784,-0.257474 0.21623,-0.635714 0.285557,-0.840457 0.06933,-0.204745 0.207567,-0.608542 0.307094,-0.897198 l 0.180876,-0.524793 -0.0021,-0.103755 c -0.0013,-0.05706 -0.03851,-0.474414 -0.08267,-0.927536 -0.04417,-0.453123 -0.09453,-0.9692853 -0.111861,-1.1468563 l -0.0315,-0.3228458 -0.09704,-0.1408097 C 14.658438,8.8192492 14.574245,8.698142 14.524738,8.6276563 14.475228,8.5571706 14.396914,8.4444319 14.350808,8.3773027 14.212562,8.1760108 13.897076,7.7236392 13.846395,7.6540327 13.833973,7.6369706 13.734278,7.5915643 13.559446,7.5229502 13.41216,7.4651446 13.223018,7.3909711 13.139105,7.3580548 13.055193,7.3251387 12.775257,7.2145611 12.516812,7.112333 12.226498,6.9975015 12.03045,6.9263584 12.004059,6.9263625 Z m -0.06555,0.1060703 c 0.0039,0.00388 -0.282421,1.2637579 -0.533131,2.3458218 -0.02021,0.087268 -0.07104,0.306952 -0.112788,0.488201 l -0.07573,0.3295594 -0.185273,0.0033 c -0.168527,0.003 -0.185695,0.0015 -0.191529,-0.0183 -0.0035,-0.01192 -0.03416,-0.145169 -0.06809,-0.29621 -0.03391,-0.1510414 -0.06721,-0.296686 -0.07388,-0.3235386 -0.0067,-0.026851 -0.04828,-0.2080678 -0.09241,-0.4027425 -0.127402,-0.5621679 -0.272659,-1.1997036 -0.2976,-1.3059619 -0.03996,-0.1702131 -0.05333,-0.2379022 -0.04817,-0.2420164 0.0029,-0.00221 0.112042,-0.041323 0.242945,-0.086848 0.130902,-0.045525 0.339694,-0.1183206 0.463884,-0.1616531 0.741652,-0.2587793 0.966424,-0.3349054 0.971769,-0.3295591 z m 0.129693,0.00139 c 0.0024,-0.0026 0.130686,0.044881 0.284632,0.1056072 0.153942,0.060727 0.348473,0.1371683 0.432385,0.1697588 0.08392,0.032591 0.273356,0.1067828 0.421037,0.1648953 0.147687,0.058113 0.326238,0.1276041 0.396725,0.1544736 0.07049,0.02687 0.132849,0.053357 0.138493,0.058825 0.01169,0.011321 -7.57e-4,0.068944 -0.187128,0.8670898 -0.07445,0.3188643 -0.162937,0.6977503 -0.196625,0.8420781 -0.0337,0.1443282 -0.08986,0.3844469 -0.08986,0.3844469 l -0.103758,0.4210405 h -0.183653 c -0.135883,0 -0.185294,-0.004 -0.189444,-0.01528 -0.0031,-0.0084 -0.04157,-0.171591 -0.08546,-0.362909 C 12.661632,9.632532 12.612252,9.4181778 12.595747,9.3476918 12.579267,9.2772058 12.458466,8.7500098 12.327332,8.1760549 12.196196,7.6021 12.083316,7.1113029 12.076284,7.085476 c -0.007,-0.025827 -0.01072,-0.049049 -0.0082,-0.051646 z m -0.05929,0.1412728 c 0.0067,0.016939 0.08756,0.3666783 0.275597,1.1901644 0.04139,0.1812488 0.0882,0.3844801 0.103985,0.4516096 0.01579,0.067129 0.04879,0.2098777 0.0732,0.3172845 0.02439,0.1074069 0.05191,0.2281407 0.06136,0.2684181 0.08885,0.3784315 0.176705,0.7670528 0.176705,0.7816318 0,0.01558 -0.09182,0.01783 -0.695709,0.01783 -0.579063,0 -0.695708,-0.0029 -0.695708,-0.01668 0,-0.0136 0.102795,-0.4688135 0.176705,-0.7827891 0.0094,-0.040277 0.03721,-0.1610113 0.06161,-0.2684181 0.02439,-0.1074068 0.05714,-0.2501554 0.07295,-0.3172845 0.01581,-0.067129 0.06019,-0.2594692 0.09843,-0.4272923 0.204473,-0.8974884 0.284355,-1.2309635 0.290884,-1.2144818 z m -1.824271,0.530353 c 0.0057,0.00353 0.01413,0.027092 0.01877,0.05234 0.0046,0.025247 0.06039,0.2739982 0.124134,0.5525845 0.06375,0.2785866 0.143256,0.627231 0.176706,0.7749155 0.0813,0.3589353 0.107381,0.4732077 0.185277,0.8145184 0.03636,0.159285 0.06325,0.292474 0.05975,0.295978 -0.0035,0.0035 -0.191862,0.0063 -0.418493,0.0063 H 9.918764 l -0.036128,-0.06393 C 9.8627452,10.102871 9.7981478,9.9861342 9.7392788,9.8787279 9.5737878,9.5767928 9.3751282,9.2146683 9.3328296,9.1383201 c -0.021016,-0.03796 -0.038443,-0.074569 -0.038443,-0.081521 0,-0.011461 0.088361,-0.1488074 0.4212693,-0.6549495 0.2045808,-0.3110329 0.3950911,-0.6022219 0.4270611,-0.6528649 0.01732,-0.027461 0.03621,-0.04707 0.04192,-0.043539 z m 3.64414,0.08569 c 0.0067,-2.253e-4 0.04875,0.052031 0.09333,0.1160289 0.111179,0.1596068 0.155701,0.2229425 0.205656,0.292504 0.0235,0.032716 0.06753,0.09588 0.09773,0.1403461 0.0302,0.044466 0.112473,0.1631531 0.18296,0.2635548 0.251026,0.3575671 0.30524,0.4372544 0.30524,0.4497564 0,0.00697 -0.07367,0.1461047 -0.163736,0.309179 -0.09007,0.163074 -0.229515,0.4174061 -0.309875,0.5650903 l -0.146136,0.2684189 -0.241089,0.0033 c -0.270744,0.0055 -0.569028,-0.007 -0.569028,-0.007 l 0.04353,-0.302694 c 0,0 0.09349,-0.3980964 0.141043,-0.6028408 0.04755,-0.2047441 0.127654,-0.5480588 0.177864,-0.7628724 0.05021,-0.2148136 0.109112,-0.4674042 0.13085,-0.5613852 0.02173,-0.093981 0.04495,-0.1711546 0.05164,-0.17138 z m 0.907852,1.4192116 c 0.0031,8.8e-4 0.0043,0.00766 0.0063,0.016212 0.0035,0.016341 0.0121,0.095457 0.01899,0.176012 0.0069,0.080554 0.03739,0.4018548 0.06763,0.7140058 0.03024,0.312151 0.06598,0.683043 0.07944,0.824013 0.01345,0.140972 0.02773,0.287718 0.03173,0.326318 0.0041,0.0386 0.0046,0.07017 0.0014,0.07017 -0.0032,0 -0.07235,-0.09472 -0.153548,-0.210519 -0.08123,-0.115799 -0.25498,-0.363101 -0.386109,-0.549807 l -0.238525,-0.339519 0.173001,-0.3135784 c 0.09514,-0.1724362 0.210091,-0.3822882 0.255449,-0.4661995 0.10871,-0.2011154 0.134853,-0.2497798 0.144283,-0.2471112 z m -5.4593803,0.00857 c 0.00963,0.00299 0.023196,0.031408 0.046319,0.074574 0.028571,0.05333 0.068825,0.1270479 0.089394,0.1639689 0.035962,0.064543 0.1540484,0.2792817 0.3022311,0.5493429 0.038676,0.07049 0.083297,0.150801 0.099123,0.17856 l 0.028712,0.05048 -0.033808,0.04725 c -0.018661,0.02595 -0.058743,0.08281 -0.089166,0.12645 -0.1293986,0.185591 -0.44477,0.63256 -0.4794004,0.6795 -0.020699,0.02805 -0.059765,0.08241 -0.086614,0.120661 -0.02685,0.03824 -0.058454,0.08115 -0.070407,0.09542 -0.021227,0.02534 -0.021684,0.02439 -0.015287,-0.04123 0.00358,-0.03693 0.017642,-0.182335 0.031032,-0.323306 0.013388,-0.140973 0.046312,-0.484289 0.073186,-0.762876 0.026885,-0.2785858 0.057336,-0.599885 0.067623,-0.7140054 0.016623,-0.1842265 0.021051,-0.2497622 0.037056,-0.2447958 z m 1.6433993,1.0671908 c 0.02969,-7e-4 0.07027,-2.9e-4 0.114174,0.0014 l 0.159569,0.0063 -0.0769,0.335581 c -0.04227,0.184605 -0.07897,0.343807 -0.08151,0.353876 -0.0041,0.01627 -0.0052,0.01627 -0.01157,0 -0.01442,-0.03709 -0.157656,-0.682625 -0.153549,-0.692005 0.0011,-0.0027 0.02007,-0.0044 0.0498,-0.0051 z m 3.116799,0 c 0.004,7.57e-4 -0.0065,0.02474 -0.02317,0.05327 -0.0167,0.02853 -0.05241,0.09301 -0.07944,0.143358 -0.02704,0.05035 -0.120597,0.220671 -0.20774,0.378425 l -0.158409,0.286946 -0.264715,0.006 c -0.145526,0.0033 -0.267513,6e-6 -0.267724,0 l 0.226267,-0.860837 c 0,0 0.127963,-0.0032 0.410617,-0.0058 0.358949,-0.003 0.354841,-0.0031 0.364298,-0.0014 z m -4.0735195,0.0014 h 0.4099255 c 0.225375,0 0.409688,0.0046 0.409688,0.01019 0,0.0056 0.02463,0.119679 0.05489,0.253364 0.03027,0.133688 0.07112,0.314318 0.09079,0.401586 0.01967,0.08727 0.03949,0.168434 0.044,0.180181 0.0076,0.01994 -0.0096,0.02131 -0.260777,0.02131 h -0.268878 l -0.0359,-0.06415 c -0.05233,-0.09323 -0.285468,-0.51536 -0.331878,-0.600992 -0.02182,-0.04028 -0.0559,-0.102092 -0.07573,-0.137334 z m 2.0343275,0.003 c 0.395108,-0.0018 0.72325,0.0017 0.72906,0.0074 0.0058,0.0058 0.01223,0.04307 0.01761,0.08245 0.02963,0.216941 0.09999,0.42645 0.150305,0.639433 l 0.03798,0.164895 -0.05952,0.05489 c -0.03269,0.0302 -0.100989,0.09202 -0.151694,0.137335 l -0.09217,0.08245 h -0.267724 c -0.813671,0 -0.275324,3.25e-4 -0.760326,-4.57e-4 l -0.226269,-4.57e-4 -0.14961,-0.13502 c -0.08223,-0.07428 -0.149209,-0.138497 -0.148914,-0.142894 3.53e-4,-0.0043 0.04602,-0.205776 0.101671,-0.44744 l 0.101211,-0.439343 z m 0.819382,0.0044 0.328171,0.0049 c 0,0 -0.01645,0.07599 -0.117418,0.508351 -0.02077,0.09299 -0.04173,0.173248 -0.04655,0.178328 -0.0049,0.0051 -0.04123,-0.138725 -0.04123,-0.138725 z m -2.9382401,0.03752 c 0.00896,-0.0091 0.069068,0.09141 0.2026441,0.339518 0.02531,0.04699 0.10023,0.182514 0.166749,0.301073 l 0.121123,0.215615 -0.06439,0.05905 c -0.03535,0.03248 -0.101386,0.09338 -0.146831,0.135483 l -0.08267,0.07665 -0.4608725,-0.0021 c -0.2535256,-0.0011 -0.4759106,-0.0052 -0.4942239,-0.0093 l -0.033351,-0.0076 0.081986,-0.112555 c 0.045161,-0.06194 0.1472993,-0.204685 0.2267308,-0.317249 0.2928652,-0.415031 0.4733977,-0.668799 0.4831044,-0.678573 z m 4.2354011,4.57e-4 c 0.0078,-0.0084 0.05753,0.05828 0.273978,0.368699 0.02607,0.0374 0.125328,0.177931 0.220477,0.31219 0.09515,0.134258 0.204506,0.289463 0.243174,0.344845 l 0.07041,0.100742 h -0.495611 -0.495614 l -0.08245,-0.07643 c -0.04529,-0.04196 -0.111108,-0.102853 -0.146369,-0.135253 l -0.06415,-0.05882 0.127146,-0.227889 c 0.06995,-0.125354 0.148053,-0.266358 0.173465,-0.313348 0.105539,-0.195157 0.167086,-0.305668 0.175547,-0.314737 z m -3.648539,0.906694 h 0.262396 0.262396 v 0.262396 0.262396 h -0.262396 -0.262396 v -0.262396 z m 2.550783,0 h 0.262396 0.262395 v 0.262396 0.262396 h -0.262395 -0.262396 v -0.262396 z m -2.643885,0.06091 c 0.0041,0 0.0076,0.09072 0.0076,0.201486 0,0.110764 -0.0042,0.201488 -0.0093,0.201488 -0.0051,0 -0.05815,-0.04562 -0.117883,-0.101206 l -0.108618,-0.100976 0.04169,-0.03451 c 0.02284,-0.01893 0.07241,-0.06404 0.110239,-0.100279 0.03783,-0.03624 0.07207,-0.066 0.07619,-0.066 z m 3.261779,0 c 0.0041,0 0.03837,0.02975 0.07619,0.066 0.03783,0.03624 0.08762,0.08135 0.11047,0.10028 l 0.04145,0.03451 -0.108617,0.100975 c -0.05973,0.05559 -0.112801,0.101207 -0.117882,0.101207 -0.0051,0 -0.0093,-0.09073 -0.0093,-0.201487 0,-0.110762 0.0035,-0.201487 0.0076,-0.201487 z m -2.56051,4.57e-4 c 0.0045,2.72e-4 0.05747,0.04716 0.117882,0.103986 l 0.110006,0.10329 -0.02917,0.02455 c -0.01603,0.01354 -0.06485,0.05761 -0.108386,0.09773 -0.04355,0.04012 -0.08402,0.07295 -0.0901,0.07295 -0.0062,0 -0.01051,-0.08848 -0.0097,-0.201486 7e-4,-0.110763 0.005,-0.201293 0.0094,-0.201024 z m 1.859241,0 c 0.0045,-2.73e-4 0.0087,0.09026 0.0094,0.201024 7e-4,0.113005 -0.0032,0.201486 -0.0094,0.201486 -0.0061,0 -0.04677,-0.03283 -0.09032,-0.07295 -0.04355,-0.04012 -0.09235,-0.08419 -0.108385,-0.09773 l -0.02917,-0.02455 0.110006,-0.103291 c 0.06041,-0.05683 0.113394,-0.103718 0.117883,-0.103986 z m -3.8666972,0.235297 c 0.00176,-0.0018 0.228623,3.86e-4 0.5044156,0.0046 l 0.5016316,0.0077 0.101903,0.09263 c 0.05604,0.05095 0.123691,0.112711 0.150305,0.137102 l 0.04817,0.04424 -0.02594,0.144979 c -0.02537,0.141586 -0.320969,1.734151 -0.3712461,2.000051 -0.021294,0.112578 -0.034722,0.166397 -0.034722,0.138029 0,-0.0034 -0.019786,-0.06331 -0.044003,-0.133166 C 9.8732579,13.9026 9.7884353,13.655868 9.7091865,13.424271 9.6299366,13.192629 9.4992834,12.811078 9.4187661,12.576126 9.3382486,12.341174 9.2253323,12.011853 9.1679464,11.844287 9.110564,11.676721 9.0652288,11.53801 9.066972,11.536267 Z m 2.3511502,0.0084 h 0.585934 0.585934 v 0.02571 c 0,0.01409 -0.02766,0.251561 -0.06138,0.527804 -0.105538,0.864633 -0.157387,1.294419 -0.160957,1.332364 l -0.0035,0.03659 -0.354806,0.0032 c -0.195131,0.0018 -0.358563,-5.28e-4 -0.363138,-0.0051 -0.0045,-0.0046 -0.0084,-0.02362 -0.0084,-0.04239 0,-0.01877 -0.02446,-0.233487 -0.05443,-0.477084 C 11.456017,11.910379 11.418,11.595 11.418,11.570586 Z m 3.017909,2.32e-4 c 0.347573,-9.8e-5 0.497233,0.0038 0.497233,0.01297 0,0.0073 -0.05533,0.17623 -0.122976,0.375415 -0.06765,0.199185 -0.176935,0.521415 -0.242944,0.71609 -0.131675,0.388352 -0.468948,1.380546 -0.479168,1.409716 -0.0057,0.01627 -0.007,0.01627 -0.0132,0 -0.006,-0.01573 -0.230487,-1.152972 -0.390007,-1.975501 l -0.05072,-0.260544 0.04864,-0.0447 c 0.0267,-0.02448 0.09518,-0.087 0.152158,-0.138957 l 0.103522,-0.09426 z m -3.104525,0.04725 0.0067,0.04053 c 0.0036,0.02219 0.02309,0.177484 0.04331,0.345308 0.0202,0.167823 0.05869,0.483363 0.08546,0.701037 0.02678,0.217674 0.04591,0.398291 0.04261,0.401585 -0.0031,0.0033 -0.006,0.0033 -0.006,0 0,-0.0053 -0.142949,-0.427033 -0.359202,-1.059777 l -0.06879,-0.201487 0.02966,-0.02433 c 0.0163,-0.01343 0.07379,-0.06467 0.127841,-0.113712 z m 1.345331,0 0.09819,0.08916 c 0.05405,0.04904 0.111722,0.100288 0.128071,0.113713 l 0.02966,0.02432 -0.06716,0.195235 c -0.03687,0.107406 -0.133137,0.389896 -0.213992,0.62762 -0.1278,0.37575 -0.159342,0.462562 -0.159338,0.439336 3e-6,-0.0028 0.02203,-0.183415 0.04887,-0.401586 0.02682,-0.21817 0.06524,-0.53414 0.08546,-0.701963 0.0202,-0.167823 0.03987,-0.323117 0.04354,-0.345307 z m -2.220992,0.257754 h 0.273748 c 0.150506,0 0.273743,0.0021 0.273743,0.0046 0,0.0042 0.165537,0.492133 0.423121,1.246441 0.05044,0.147685 0.100445,0.294616 0.111167,0.326548 0.0121,0.03599 0.01526,0.06204 0.0082,0.06854 -0.0063,0.0059 -0.0665,0.03551 -0.13363,0.066 -0.06713,0.03049 -0.182536,0.08389 -0.256376,0.118808 -0.07385,0.03492 -0.156108,0.07336 -0.182961,0.08522 -0.05534,0.02446 -0.526024,0.243186 -0.776767,0.361057 -0.09158,0.04306 -0.170323,0.07828 -0.174854,0.07828 -0.0045,0 -0.0052,-0.0095 -0.0018,-0.02131 0.0036,-0.01174 0.01733,-0.08179 0.03057,-0.155631 0.02966,-0.165155 0.3891,-2.098456 0.398806,-2.145029 z m 2.822443,0 h 0.273284 l 0.0065,0.02756 c 0.0036,0.0151 0.06761,0.337736 0.142199,0.717016 0.07459,0.379279 0.174019,0.883504 0.22071,1.120454 0.04669,0.23695 0.08476,0.435952 0.08476,0.442346 0,0.01759 -0.0067,0.01532 -0.170916,-0.05698 -0.08392,-0.03694 -0.33094,-0.145823 -0.549111,-0.242016 -0.218168,-0.0962 -0.494108,-0.217341 -0.613262,-0.269345 -0.119154,-0.052 -0.216773,-0.101464 -0.216773,-0.109776 0,-0.0083 0.0088,-0.03918 0.01947,-0.06854 0.04402,-0.1214 0.529887,-1.548618 0.529887,-1.556546 0,-0.0023 0.122972,-0.0042 0.273281,-0.0042 z m -1.628574,1.708706 h 0.354342 0.35457 l -0.0035,0.263322 -0.0031,0.263323 -0.164665,0.06022 c -0.09062,0.03307 -0.175785,0.05966 -0.189213,0.05905 -0.01343,-5.83e-4 -0.09592,-0.02779 -0.183189,-0.06022 l -0.158642,-0.05882 -0.0031,-0.263554 z m -0.08986,0.02455 c 0.0024,0 0.0049,0.114428 0.0049,0.25429 v 0.254291 l -0.259384,0.125293 c -0.142651,0.06893 -0.278503,0.12716 -0.301999,0.129462 -0.02352,0.0023 -0.207611,-0.01441 -0.408997,-0.03729 -0.201387,-0.02288 -0.386833,-0.04189 -0.412006,-0.04215 -0.02515,-2.73e-4 -0.04562,-0.005 -0.04562,-0.01042 0,-0.0054 0.275936,-0.138169 0.613261,-0.295052 0.337326,-0.15688 0.656606,-0.306201 0.709373,-0.331875 0.05277,-0.02567 0.0979,-0.04655 0.100515,-0.04655 z m 0.889555,0 c 0.0031,0 0.06247,0.02499 0.131313,0.05558 0.06885,0.03059 0.141745,0.06292 0.161885,0.07179 0.02014,0.0088 0.08039,0.03545 0.134094,0.05929 0.145825,0.06474 0.906537,0.398067 0.973623,0.426596 0.03205,0.01363 0.05696,0.02611 0.05512,0.02778 -0.0018,0.0017 -0.06928,0.01215 -0.149842,0.02316 -0.08055,0.01101 -0.283361,0.03903 -0.450683,0.0623 -0.167322,0.02327 -0.307718,0.04238 -0.311959,0.04238 -0.0042,0 -0.127915,-0.05782 -0.274671,-0.128303 -0.146757,-0.07049 -0.268511,-0.128073 -0.270732,-0.128073 -0.0021,0 -0.0042,-0.115403 -0.0042,-0.256374 0,-0.140971 0.0028,-0.256143 0.006,-0.256143 z m -0.842078,0.577365 0.170916,0.06091 c 0.108889,0.03891 0.190806,0.06114 0.225805,0.06114 0.03496,0 0.116958,-0.02204 0.225804,-0.06091 l 0.170918,-0.06114 0.207508,0.100975 c 0.114108,0.05557 0.199271,0.103717 0.189213,0.106765 -0.03985,0.01208 -0.744192,0.06966 -0.830034,0.06786 -0.05035,-0.0011 -0.237125,-0.01565 -0.415018,-0.03219 -0.177894,-0.01654 -0.331583,-0.03256 -0.341603,-0.03567 -0.01002,-0.0031 0.07514,-0.05116 0.189214,-0.106765 z m 2.34559,0.146831 c 0.0036,0.0036 -1.313512,1.484753 -1.320324,1.484753 -0.0018,0 -0.0064,-0.01223 -0.0099,-0.02733 -0.0036,-0.0151 -0.04571,-0.227156 -0.09357,-0.471295 l -0.08685,-0.443967 0.02801,-0.01969 c 0.02895,-0.02029 0.276018,-0.206228 0.471524,-0.354803 0.03812,-0.02896 0.07028,-0.03907 0.17393,-0.05512 0.177257,-0.02746 0.834023,-0.115746 0.837214,-0.112556 z m -3.872726,0.03589 c 0.0053,-0.0053 0.2269,0.01637 0.720952,0.07063 l 0.219091,0.02408 0.08615,0.06554 c 0.29994,0.227961 0.411356,0.312069 0.434009,0.327938 l 0.02547,0.01806 -0.08638,0.443967 c -0.04762,0.24414 -0.09066,0.456649 -0.09565,0.472452 -0.0083,0.02605 -0.03363,0.0015 -0.2712,-0.262164 -0.144089,-0.160021 -0.384903,-0.42819 -0.535213,-0.596163 -0.150308,-0.167971 -0.298618,-0.332948 -0.329555,-0.366613 -0.127514,-0.138744 -0.173025,-0.192435 -0.167677,-0.197781 z m 2.73328,0.108618 c 0.0049,7.58e-4 0.0078,0.0027 0.0076,0.0055 -3.51e-4,0.0059 -0.09855,0.08336 -0.2177,0.172305 l -0.216541,0.161654 -0.383522,-2.32e-4 h -0.383751 l -0.20153,-0.153309 c -0.110762,-0.08428 -0.20954,-0.157965 -0.219553,-0.163737 -0.01002,-0.0058 -0.01536,-0.01295 -0.01205,-0.01597 0.0031,-0.0031 0.187238,0.01132 0.408766,0.03197 l 0.402742,0.03752 0.384449,-0.03405 c 0.211455,-0.01875 0.3969,-0.03686 0.412006,-0.0403 0.0076,-0.0018 0.01416,-0.0022 0.01898,-0.0014 z m -1.172797,0.424975 h 0.363374 0.36337 l 0.0078,0.05211 c 0.0043,0.0287 0.0457,0.244284 0.09194,0.478938 0.04624,0.234654 0.08139,0.430916 0.07804,0.436324 -0.0073,0.01178 -1.055952,0.01042 -1.075062,-0.0014 -0.0092,-0.0056 0.0129,-0.141944 0.07063,-0.434936 0.04626,-0.234727 0.08763,-0.45024 0.09195,-0.478937 z" /></svg>
